<svg width="115" height="67" viewBox="0 0 115 67" fill="none" xmlns="http://www.w3.org/2000/svg">
<path d="M58.0066 8.53522e-07C53.7861 0.00320859 49.6931 1.44769 46.4049 4.09444C46.2844 4.19233 46.164 4.29211 46.0454 4.39376C45.9791 4.43797 45.9229 4.49572 45.8805 4.56322C45.8381 4.63071 45.8105 4.70642 45.7994 4.78537C45.7883 4.86432 45.7941 4.94471 45.8164 5.02127C45.8386 5.09782 45.8768 5.1688 45.9284 5.22953C45.98 5.29026 46.0439 5.33938 46.1159 5.37364C46.1878 5.4079 46.2662 5.42654 46.3459 5.42832C46.4255 5.43011 46.5047 5.415 46.5781 5.38399C46.6515 5.35298 46.7175 5.30678 46.7718 5.24842L47.1106 4.96981C50.3274 2.37523 54.3637 1.01326 58.4943 1.12862C62.6248 1.24397 66.5789 2.82909 69.646 5.59915C72.7131 8.36921 74.6921 12.1426 75.2274 16.2414C75.7628 20.3401 74.8193 24.4955 72.5667 27.9608C71.7198 27.974 69.2546 28.0116 67.83 28.0116H65.2914V15.5871L57.8824 26.067L50.6428 16.0521V28.0116H48.7422V15.0224C49.0665 14.8846 49.3328 14.6382 49.4953 14.3254C49.6578 14.0126 49.7064 13.653 49.6327 13.3083C49.559 12.9636 49.3676 12.6554 49.0914 12.4365C48.8152 12.2175 48.4714 12.1017 48.1191 12.1087C47.7668 12.1158 47.4279 12.2453 47.1607 12.4751C46.8935 12.7049 46.7146 13.0205 46.6547 13.3679C46.5948 13.7153 46.6577 14.0727 46.8326 14.3787C47.0075 14.6847 47.2834 14.9203 47.613 15.045V29.1336H51.7532V19.5234L57.5606 27.5579H58.191L64.1735 19.1187V29.1355H67.8357C69.5764 29.1355 72.8527 29.0809 72.8866 29.079H73.1783L73.342 28.8362C75.2179 26.0533 76.3015 22.8122 76.4765 19.4603C76.6515 16.1085 75.9114 12.7721 74.3355 9.80888C72.7597 6.84565 70.4074 4.36724 67.5309 2.63929C64.6543 0.911339 61.362 -0.00101867 58.0066 8.53522e-07ZM48.155 14.3578C48.0106 14.3578 47.8694 14.315 47.7493 14.2347C47.6293 14.1545 47.5357 14.0404 47.4804 13.9069C47.4252 13.7735 47.4107 13.6266 47.4389 13.4849C47.467 13.3433 47.5366 13.2131 47.6387 13.111C47.7408 13.0088 47.8709 12.9392 48.0126 12.9111C48.1542 12.8829 48.301 12.8973 48.4344 12.9526C48.5679 13.0079 48.6819 13.1015 48.7621 13.2216C48.8424 13.3418 48.8852 13.483 48.8852 13.6274C48.8847 13.821 48.8076 14.0065 48.6708 14.1434C48.5339 14.2802 48.3485 14.3573 48.155 14.3578Z" fill="#018ABE"/>
<path d="M69.2076 31.7639C66.0327 34.4451 62.002 35.8986 57.8472 35.8605C53.6924 35.8223 49.689 34.2952 46.5638 31.5562C43.4386 28.8172 41.3988 25.048 40.8148 20.9329C40.2307 16.8178 41.1412 12.6296 43.3808 9.12873L47.9255 8.9819L57.9183 23.1327L67.2693 10.085V21.7434C66.9422 21.8746 66.671 22.1156 66.5023 22.4251C66.3335 22.7345 66.2778 23.0931 66.3446 23.4392C66.4114 23.7854 66.5965 24.0974 66.8683 24.3218C67.1401 24.5462 67.4815 24.669 67.8339 24.669C68.1862 24.669 68.5276 24.5462 68.7994 24.3218C69.0712 24.0974 69.2564 23.7854 69.3232 23.4392C69.3899 23.0931 69.3342 22.7345 69.1654 22.4251C68.9967 22.1156 68.7255 21.8746 68.3984 21.7434V7.84863H67.4932L57.9239 21.1937L48.5014 7.84863H48.2115L42.7541 8.02371L42.5941 8.26467C40.1274 11.9745 39.0825 16.4504 39.6515 20.8694C40.2206 25.2884 42.3653 29.3534 45.6913 32.3168C49.0173 35.2802 53.301 36.9429 57.7547 36.999C62.2083 37.0552 66.5326 35.501 69.9321 32.6224C70.029 32.5217 70.0851 32.3887 70.0896 32.2491C70.0941 32.1095 70.0468 31.9732 69.9567 31.8664C69.8666 31.7597 69.7402 31.6902 69.6019 31.6712C69.4635 31.6523 69.3231 31.6853 69.2076 31.7639ZM67.8301 22.4211C67.9745 22.4211 68.1157 22.4639 68.2358 22.5442C68.3558 22.6244 68.4494 22.7385 68.5047 22.872C68.5599 23.0054 68.5744 23.1523 68.5462 23.294C68.5181 23.4357 68.4485 23.5658 68.3464 23.668C68.2443 23.7701 68.1142 23.8397 67.9725 23.8679C67.8309 23.8961 67.6841 23.8816 67.5507 23.8263C67.4173 23.771 67.3032 23.6774 67.223 23.5573C67.1428 23.4372 67.0999 23.296 67.0999 23.1515C67.0999 23.0556 67.1188 22.9606 67.1555 22.872C67.1922 22.7834 67.246 22.7028 67.3138 22.635C67.3816 22.5672 67.4621 22.5134 67.5507 22.4767C67.6393 22.44 67.7342 22.4211 67.8301 22.4211Z" fill="#018ABE"/>
<path d="M0.5 61.0964V40H0.527675L11.3762 55.5285L9.99245 55.2207L20.7856 40H20.841V61.0964H17.6307V47.3585L17.8521 49.0373L10.5736 59.4456H10.5183L3.07376 49.0373L3.62725 47.4984V61.0964H0.5Z" fill="#018ABE"/>
<path d="M31.3178 61.4041C29.9341 61.4041 28.7533 61.1337 27.7754 60.5927C26.7976 60.0518 26.0504 59.3057 25.5338 58.3544C25.0172 57.3845 24.7589 56.2933 24.7589 55.0808C24.7589 53.887 25.0541 52.8145 25.6445 51.8632C26.2349 50.9119 27.0282 50.1565 28.0245 49.5969C29.0393 49.0187 30.1555 48.7295 31.3732 48.7295C32.9783 48.7295 34.2975 49.2052 35.3307 50.1565C36.3823 51.0891 37.0834 52.4135 37.4339 54.1295L27.9968 57.3471L27.2773 55.5845L34.6388 52.9264L34.0023 53.2902C33.7993 52.7306 33.4672 52.2456 33.006 51.8352C32.5632 51.4249 31.9359 51.2197 31.1241 51.2197C30.4783 51.2197 29.9064 51.3782 29.4083 51.6953C28.9101 51.9938 28.5134 52.4228 28.2182 52.9824C27.9415 53.5233 27.8031 54.1668 27.8031 54.913C27.8031 55.6777 27.9599 56.3492 28.2736 56.9275C28.5872 57.5057 29.0116 57.9534 29.5466 58.2705C30.0817 58.5689 30.6905 58.7181 31.3732 58.7181C31.8529 58.7181 32.3141 58.6342 32.7569 58.4663C33.1997 58.2984 33.6148 58.0746 34.0023 57.7948L35.4137 60.1171C34.8048 60.5088 34.1314 60.8259 33.3934 61.0684C32.6739 61.2922 31.982 61.4041 31.3178 61.4041Z" fill="#018ABE"/>
<path d="M46.3232 67C45.3638 67 44.5428 66.8881 43.8601 66.6642C43.1775 66.4404 42.5686 66.142 42.0336 65.7689C41.517 65.4145 41.0281 65.0414 40.5668 64.6497L42.3934 62.4953C42.9284 62.999 43.4911 63.4187 44.0815 63.7544C44.6904 64.0902 45.4191 64.258 46.2678 64.258C47.0243 64.258 47.6792 64.1275 48.2327 63.8663C48.8047 63.6052 49.2475 63.2414 49.5611 62.7751C49.8748 62.3088 50.0408 61.7492 50.0593 61.0964V58.1585L50.253 58.7461C49.9393 59.4736 49.3674 60.0984 48.5372 60.6207C47.7069 61.143 46.6737 61.4041 45.4376 61.4041C44.3675 61.4041 43.3804 61.1337 42.4764 60.5927C41.5723 60.0332 40.8528 59.2777 40.3177 58.3264C39.7827 57.3751 39.5152 56.3026 39.5152 55.1088C39.5152 53.8777 39.7919 52.7865 40.3454 51.8352C40.9174 50.8653 41.6646 50.1098 42.5871 49.5689C43.528 49.0093 44.5243 48.7295 45.576 48.7295C46.6091 48.7295 47.5224 48.9161 48.3158 49.2891C49.1276 49.6622 49.7364 50.1285 50.1423 50.6881L49.9762 51.1358L50.3083 49.2611H53.1588V61.1523C53.1588 62.2528 52.8636 63.2414 52.2733 64.1181C51.7013 65.0135 50.8987 65.713 49.8655 66.2166C48.8508 66.7389 47.67 67 46.3232 67ZM42.6424 55.0249C42.6424 55.7337 42.7992 56.3772 43.1129 56.9554C43.445 57.5337 43.8878 57.9907 44.4413 58.3264C45.0132 58.6622 45.6498 58.8301 46.3508 58.8301C46.9597 58.8301 47.504 58.7275 47.9837 58.5223C48.4818 58.3171 48.9062 58.028 49.2567 57.6549C49.6257 57.2819 49.8932 56.8435 50.0593 56.3399V53.7658C49.8932 53.2622 49.6257 52.8332 49.2567 52.4788C48.9062 52.1057 48.4818 51.8166 47.9837 51.6114C47.504 51.4062 46.9597 51.3036 46.3508 51.3036C45.6498 51.3036 45.0132 51.4622 44.4413 51.7793C43.8878 52.0964 43.445 52.5347 43.1129 53.0943C42.7992 53.6539 42.6424 54.2974 42.6424 55.0249Z" fill="#018ABE"/>
<path d="M62.3553 61.4041C61.2483 61.4041 60.2428 61.171 59.3388 60.7047C58.4532 60.2383 57.7521 59.5482 57.2355 58.6342C56.7189 57.7016 56.4606 56.5544 56.4606 55.1927C56.4606 53.8497 56.7281 52.7026 57.2631 51.7513C57.8166 50.7813 58.5362 50.0352 59.4218 49.513C60.3258 48.9907 61.3037 48.7295 62.3553 48.7295C63.4807 48.7295 64.3848 48.9534 65.0674 49.401C65.7685 49.8487 66.3128 50.3803 66.7002 50.9959L66.5342 51.4435L66.8386 49.2611H69.6891V61.0964H66.5895V58.2145L66.894 58.9699C66.8202 59.0819 66.6726 59.2684 66.4512 59.5295C66.2298 59.772 65.9254 60.0425 65.5379 60.3409C65.1505 60.6394 64.6892 60.8912 64.1542 61.0964C63.6376 61.3016 63.0379 61.4041 62.3553 61.4041ZM63.2132 58.8301C63.7667 58.8301 64.2649 58.7275 64.7077 58.5223C65.1689 58.3171 65.5564 58.028 65.87 57.6549C66.2021 57.2819 66.4419 56.8342 66.5895 56.3119V53.7378C66.4419 53.2528 66.2021 52.8332 65.87 52.4788C65.5379 52.1057 65.132 51.8166 64.6523 51.6114C64.1911 51.4062 63.6745 51.3036 63.1025 51.3036C62.4752 51.3036 61.8941 51.4622 61.359 51.7793C60.824 52.0964 60.3904 52.5347 60.0583 53.0943C59.7447 53.6539 59.5878 54.2974 59.5878 55.0249C59.5878 55.7337 59.7539 56.3772 60.086 56.9554C60.4181 57.5337 60.8609 57.9907 61.4144 58.3264C61.9679 58.6622 62.5675 58.8301 63.2132 58.8301Z" fill="#018ABE"/>
<path d="M77.4839 61.3482C76.5983 61.3482 75.7496 61.1896 74.9378 60.8725C74.1445 60.5554 73.4711 60.0891 72.9176 59.4736L74.2459 57.7109C74.7625 58.2145 75.2699 58.5876 75.7681 58.8301C76.2847 59.0539 76.7736 59.1658 77.2348 59.1658C77.5854 59.1658 77.899 59.1285 78.1758 59.0539C78.471 58.9606 78.7016 58.8207 78.8676 58.6342C79.0521 58.4477 79.1444 58.1959 79.1444 57.8788C79.1444 57.5057 79.0152 57.2166 78.7569 57.0114C78.4986 56.7876 78.1665 56.6104 77.7607 56.4798C77.3548 56.3306 76.9304 56.1907 76.4876 56.0601C75.4729 55.743 74.7164 55.2767 74.2183 54.6611C73.7201 54.0456 73.4711 53.3368 73.4711 52.5347C73.4711 51.9192 73.6279 51.3316 73.9415 50.772C74.2552 50.1938 74.7349 49.7181 75.3806 49.3451C76.0264 48.972 76.8382 48.7855 77.816 48.7855C78.7016 48.7855 79.4673 48.8881 80.113 49.0933C80.7772 49.2798 81.3953 49.6062 81.9672 50.0725L80.7772 51.9471C80.4451 51.6301 80.0484 51.3876 79.5872 51.2197C79.1444 51.0332 78.7385 50.9306 78.3695 50.9119C78.0374 50.8933 77.7422 50.9399 77.4839 51.0518C77.2256 51.1451 77.0134 51.285 76.8474 51.4715C76.6998 51.658 76.626 51.8725 76.626 52.115C76.6075 52.4881 76.7275 52.7865 76.9857 53.0104C77.2625 53.2342 77.613 53.4114 78.0374 53.542C78.4617 53.6725 78.8861 53.8124 79.3104 53.9617C79.8824 54.1295 80.3897 54.3627 80.8325 54.6611C81.2753 54.9596 81.6167 55.3233 81.8565 55.7523C82.1148 56.1627 82.244 56.6756 82.244 57.2912C82.244 58 82.0687 58.6715 81.7181 59.3057C81.3676 59.9212 80.8418 60.4155 80.1407 60.7886C79.4396 61.1617 78.554 61.3482 77.4839 61.3482Z" fill="#018ABE"/>
<path d="M84.7029 55.0528C84.7029 53.8591 84.9797 52.7865 85.5331 51.8352C86.0866 50.8653 86.8615 50.1098 87.8578 49.5689C88.8726 49.0093 90.0165 48.7295 91.2895 48.7295C92.5994 48.7295 93.7341 49.0093 94.6935 49.5689C95.6713 50.1098 96.4278 50.8653 96.9628 51.8352C97.4979 52.7865 97.7654 53.8591 97.7654 55.0528C97.7654 56.2466 97.4979 57.3285 96.9628 58.2984C96.4278 59.2497 95.6713 60.0052 94.6935 60.5648C93.7341 61.1244 92.5902 61.4041 91.2618 61.4041C90.0072 61.4041 88.8818 61.1523 87.8855 60.6487C86.8892 60.1264 86.1051 59.3896 85.5331 58.4383C84.9797 57.487 84.7029 56.3585 84.7029 55.0528ZM87.8302 55.0808C87.8302 55.771 87.9778 56.4052 88.273 56.9834C88.5682 57.543 88.9741 57.9907 89.4906 58.3264C90.0072 58.6622 90.5792 58.8301 91.2065 58.8301C91.8891 58.8301 92.4795 58.6622 92.9777 58.3264C93.4943 57.9907 93.8909 57.543 94.1677 56.9834C94.4629 56.4052 94.6105 55.771 94.6105 55.0808C94.6105 54.372 94.4629 53.7378 94.1677 53.1782C93.8909 52.6 93.4943 52.143 92.9777 51.8073C92.4795 51.4715 91.8891 51.3036 91.2065 51.3036C90.5607 51.3036 89.9796 51.4808 89.463 51.8352C88.9648 52.171 88.5682 52.6187 88.273 53.1782C87.9778 53.7378 87.8302 54.372 87.8302 55.0808Z" fill="#018ABE"/>
<path d="M108.135 61.4041C107.323 61.4041 106.539 61.2269 105.782 60.8725C105.026 60.5181 104.417 60.0332 103.956 59.4176L104.122 58.4663V66.7762H101.022V49.0373H103.707L104.122 51.7793L103.845 50.9399C104.417 50.3057 105.109 49.7834 105.921 49.3731C106.751 48.944 107.683 48.7295 108.716 48.7295C109.823 48.7295 110.81 48.9907 111.677 49.513C112.544 50.0352 113.227 50.7813 113.725 51.7513C114.242 52.7026 114.5 53.8311 114.5 55.1368C114.5 56.4425 114.223 57.5617 113.67 58.4943C113.116 59.4269 112.36 60.1451 111.4 60.6487C110.441 61.1523 109.352 61.4041 108.135 61.4041ZM107.526 58.914C108.209 58.914 108.836 58.7554 109.408 58.4383C109.998 58.1212 110.469 57.6829 110.819 57.1233C111.17 56.5451 111.345 55.9016 111.345 55.1927C111.345 54.4466 111.179 53.7938 110.847 53.2342C110.533 52.656 110.1 52.2083 109.546 51.8912C109.011 51.5554 108.412 51.3876 107.747 51.3876C107.139 51.3876 106.594 51.4902 106.115 51.6953C105.635 51.9005 105.229 52.199 104.897 52.5907C104.565 52.9637 104.306 53.4114 104.122 53.9337V56.3119C104.251 56.8155 104.472 57.2632 104.786 57.6549C105.1 58.0466 105.496 58.3544 105.976 58.5782C106.456 58.8021 106.972 58.914 107.526 58.914Z" fill="#018ABE"/>
</svg>
